<svg width="288" height="50" viewBox="0 0 288 50" fill="none" xmlns="http://www.w3.org/2000/svg">
<path d="M25.872 5.73602L25.104 11.784H16.896V39H9.02401V11.784H0.432007V5.73602H25.872Z" fill="#141414"/>
<path d="M43.8259 12.696C46.0339 12.696 47.7619 13.368 49.0099 14.712C50.2579 16.056 50.8819 17.944 50.8819 20.376V39H43.2979V21.672C43.2979 20.392 43.0899 19.512 42.6739 19.032C42.2579 18.52 41.6659 18.264 40.8979 18.264C39.3619 18.264 37.8899 19.352 36.4819 21.528V39H28.8979V3.38402L36.4819 2.61602V16.248C37.5379 15.064 38.6579 14.184 39.8419 13.608C41.0259 13 42.3539 12.696 43.8259 12.696Z" fill="#141414"/>
<path d="M64.185 13.512V39H56.601V13.512H64.185ZM60.345 0.0720215C61.657 0.0720215 62.729 0.488022 63.561 1.32002C64.425 2.12002 64.857 3.14402 64.857 4.39202C64.857 5.64002 64.425 6.68002 63.561 7.51202C62.729 8.31202 61.657 8.71202 60.345 8.71202C59.033 8.71202 57.961 8.31202 57.129 7.51202C56.297 6.68002 55.881 5.64002 55.881 4.39202C55.881 3.14402 56.297 2.12002 57.129 1.32002C57.961 0.488022 59.033 0.0720215 60.345 0.0720215Z" fill="#141414"/>
<path d="M90.4039 31.608C90.4039 32.568 90.5319 33.272 90.7879 33.72C91.0759 34.168 91.5239 34.504 92.1319 34.728L90.5479 39.672C88.9799 39.544 87.6999 39.208 86.7079 38.664C85.7159 38.088 84.9479 37.192 84.4039 35.976C82.7399 38.536 80.1799 39.816 76.7239 39.816C74.1959 39.816 72.1799 39.08 70.6759 37.608C69.1719 36.136 68.4199 34.216 68.4199 31.848C68.4199 29.064 69.4439 26.936 71.4919 25.464C73.5399 23.992 76.4999 23.256 80.3719 23.256H82.9639V22.152C82.9639 20.648 82.6439 19.624 82.0039 19.08C81.3639 18.504 80.2439 18.216 78.6439 18.216C77.8119 18.216 76.8039 18.344 75.6199 18.6C74.4359 18.824 73.2199 19.144 71.9719 19.56L70.2439 14.568C71.8439 13.96 73.4759 13.496 75.1399 13.176C76.8359 12.856 78.4039 12.696 79.8439 12.696C83.4919 12.696 86.1639 13.448 87.8599 14.952C89.5559 16.456 90.4039 18.712 90.4039 21.72V31.608ZM78.9319 34.392C80.6599 34.392 82.0039 33.576 82.9639 31.944V27.432H81.0919C79.3639 27.432 78.0679 27.736 77.2039 28.344C76.3719 28.952 75.9559 29.896 75.9559 31.176C75.9559 32.2 76.2119 33 76.7239 33.576C77.2679 34.12 78.0039 34.392 78.9319 34.392Z" fill="#141414"/>
<path d="M119.448 15C117.784 15.672 115.336 16.008 112.104 16.008C113.768 16.712 114.984 17.576 115.752 18.6C116.52 19.624 116.904 20.952 116.904 22.584C116.904 24.216 116.472 25.688 115.608 27C114.744 28.28 113.496 29.288 111.864 30.024C110.264 30.76 108.376 31.128 106.2 31.128C105.176 31.128 104.2 31.032 103.272 30.84C103.016 30.968 102.808 31.176 102.648 31.464C102.52 31.72 102.456 31.992 102.456 32.28C102.456 32.76 102.632 33.144 102.984 33.432C103.368 33.688 104.12 33.816 105.24 33.816H109.08C111.032 33.816 112.744 34.136 114.216 34.776C115.688 35.416 116.824 36.296 117.624 37.416C118.424 38.536 118.824 39.8 118.824 41.208C118.824 43.864 117.672 45.928 115.368 47.4C113.096 48.904 109.8 49.656 105.48 49.656C102.376 49.656 99.928 49.32 98.136 48.648C96.344 48.008 95.08 47.096 94.344 45.912C93.64 44.728 93.288 43.24 93.288 41.448H100.104C100.104 42.216 100.248 42.824 100.536 43.272C100.856 43.72 101.416 44.056 102.216 44.28C103.016 44.504 104.168 44.616 105.672 44.616C107.752 44.616 109.192 44.36 109.992 43.848C110.792 43.368 111.192 42.664 111.192 41.736C111.192 40.968 110.888 40.36 110.28 39.912C109.672 39.464 108.76 39.24 107.544 39.24H103.848C101.224 39.24 99.256 38.776 97.944 37.848C96.664 36.888 96.024 35.672 96.024 34.2C96.024 33.272 96.296 32.376 96.84 31.512C97.384 30.616 98.12 29.88 99.048 29.304C97.448 28.44 96.28 27.432 95.544 26.28C94.84 25.096 94.488 23.672 94.488 22.008C94.488 19.16 95.512 16.904 97.56 15.24C99.608 13.544 102.312 12.696 105.672 12.696C108.232 12.76 110.392 12.504 112.152 11.928C113.944 11.352 115.784 10.504 117.672 9.38402L119.448 15ZM105.864 17.688C104.68 17.688 103.736 18.072 103.032 18.84C102.36 19.576 102.024 20.6 102.024 21.912C102.024 23.288 102.36 24.36 103.032 25.128C103.736 25.864 104.68 26.232 105.864 26.232C107.112 26.232 108.056 25.864 108.696 25.128C109.368 24.392 109.704 23.288 109.704 21.816C109.704 19.064 108.424 17.688 105.864 17.688Z" fill="#141414"/>
<path d="M132.375 12.696C136.279 12.696 139.335 13.896 141.543 16.296C143.751 18.664 144.855 21.992 144.855 26.28C144.855 29 144.343 31.384 143.319 33.432C142.327 35.448 140.887 37.016 138.999 38.136C137.143 39.256 134.935 39.816 132.375 39.816C128.503 39.816 125.447 38.632 123.207 36.264C120.999 33.864 119.895 30.52 119.895 26.232C119.895 23.512 120.391 21.144 121.383 19.128C122.407 17.08 123.847 15.496 125.703 14.376C127.591 13.256 129.815 12.696 132.375 12.696ZM132.375 18.264C130.839 18.264 129.687 18.92 128.919 20.232C128.151 21.512 127.767 23.512 127.767 26.232C127.767 29.016 128.135 31.048 128.871 32.328C129.639 33.608 130.807 34.248 132.375 34.248C133.911 34.248 135.063 33.608 135.831 32.328C136.599 31.016 136.983 29 136.983 26.28C136.983 23.496 136.599 21.464 135.831 20.184C135.095 18.904 133.943 18.264 132.375 18.264Z" fill="#141414"/>
<path d="M171.605 4.92002C174.101 4.92002 176.261 5.27202 178.085 5.97602C179.941 6.68002 181.621 7.75202 183.125 9.19202L179.477 13.464C177.205 11.608 174.773 10.68 172.181 10.68C170.805 10.68 169.717 10.968 168.917 11.544C168.117 12.088 167.717 12.888 167.717 13.944C167.717 14.68 167.893 15.288 168.245 15.768C168.597 16.216 169.221 16.648 170.117 17.064C171.013 17.48 172.357 17.976 174.149 18.552C177.541 19.64 180.037 20.984 181.637 22.584C183.237 24.152 184.037 26.392 184.037 29.304C184.037 31.384 183.509 33.224 182.453 34.824C181.397 36.392 179.877 37.624 177.893 38.52C175.909 39.384 173.557 39.816 170.837 39.816C168.117 39.816 165.701 39.384 163.589 38.52C161.509 37.656 159.717 36.504 158.213 35.064L162.197 30.696C163.477 31.784 164.789 32.6 166.133 33.144C167.509 33.688 168.997 33.96 170.597 33.96C172.229 33.96 173.509 33.608 174.437 32.904C175.397 32.168 175.877 31.16 175.877 29.88C175.877 29.048 175.701 28.36 175.349 27.816C174.997 27.24 174.389 26.728 173.525 26.28C172.661 25.832 171.413 25.352 169.781 24.84C166.101 23.72 163.477 22.344 161.909 20.712C160.373 19.08 159.605 17.016 159.605 14.52C159.605 12.6 160.117 10.92 161.141 9.48002C162.165 8.00802 163.589 6.88802 165.413 6.12002C167.237 5.32002 169.301 4.92002 171.605 4.92002Z" fill="#141414"/>
<path d="M199.266 12.696C203.17 12.696 206.226 13.896 208.434 16.296C210.642 18.664 211.746 21.992 211.746 26.28C211.746 29 211.234 31.384 210.21 33.432C209.218 35.448 207.778 37.016 205.89 38.136C204.034 39.256 201.826 39.816 199.266 39.816C195.394 39.816 192.338 38.632 190.098 36.264C187.89 33.864 186.786 30.52 186.786 26.232C186.786 23.512 187.282 21.144 188.274 19.128C189.298 17.08 190.738 15.496 192.594 14.376C194.482 13.256 196.706 12.696 199.266 12.696ZM199.266 18.264C197.73 18.264 196.578 18.92 195.81 20.232C195.042 21.512 194.658 23.512 194.658 26.232C194.658 29.016 195.026 31.048 195.762 32.328C196.53 33.608 197.698 34.248 199.266 34.248C200.802 34.248 201.954 33.608 202.722 32.328C203.49 31.016 203.874 29 203.874 26.28C203.874 23.496 203.49 21.464 202.722 20.184C201.986 18.904 200.834 18.264 199.266 18.264Z" fill="#141414"/>
<path d="M237.761 39H231.185L230.849 35.784C228.993 38.472 226.417 39.816 223.121 39.816C220.785 39.816 219.009 39.112 217.793 37.704C216.609 36.296 216.017 34.328 216.017 31.8V13.512H223.601V30.84C223.601 32.088 223.793 32.968 224.177 33.48C224.593 33.96 225.217 34.2 226.049 34.2C227.649 34.2 229.025 33.208 230.177 31.224V13.512H237.761V39Z" fill="#141414"/>
<path d="M261.678 13.512V18.84L250.158 33.24H261.918L261.246 39H241.374V33.624L252.942 19.224H242.382V13.512H261.678Z" fill="#141414"/>
<path d="M285.31 31.608C285.31 32.568 285.438 33.272 285.694 33.72C285.982 34.168 286.43 34.504 287.038 34.728L285.454 39.672C283.886 39.544 282.606 39.208 281.614 38.664C280.622 38.088 279.854 37.192 279.31 35.976C277.646 38.536 275.086 39.816 271.63 39.816C269.102 39.816 267.086 39.08 265.582 37.608C264.078 36.136 263.326 34.216 263.326 31.848C263.326 29.064 264.35 26.936 266.398 25.464C268.446 23.992 271.406 23.256 275.278 23.256H277.87V22.152C277.87 20.648 277.55 19.624 276.91 19.08C276.27 18.504 275.15 18.216 273.55 18.216C272.718 18.216 271.71 18.344 270.526 18.6C269.342 18.824 268.126 19.144 266.878 19.56L265.15 14.568C266.75 13.96 268.382 13.496 270.046 13.176C271.742 12.856 273.31 12.696 274.75 12.696C278.398 12.696 281.07 13.448 282.766 14.952C284.462 16.456 285.31 18.712 285.31 21.72V31.608ZM273.838 34.392C275.566 34.392 276.91 33.576 277.87 31.944V27.432H275.998C274.27 27.432 272.974 27.736 272.11 28.344C271.278 28.952 270.862 29.896 270.862 31.176C270.862 32.2 271.118 33 271.63 33.576C272.174 34.12 272.91 34.392 273.838 34.392Z" fill="#141414"/>
</svg>
